<svg xmlns="http://www.w3.org/2000/svg" viewBox="0 0 100 100" xml:space="preserve" enable-background="new 0 0 100 100"><path d="M48.793 51.383c-2.204.298-3.997 1.235-5.035 2.644-.85 1.148-1.145 2.546-.88 4.139.25 1.484.71 4.252 7.99 4.252 6.972 0 8.895-7.01 9.426-10.856-1.853-.369-3.868-.558-6.019-.558-1.75 0-3.58.124-5.482.379z" fill="#f9feff" class="fill-444b54"></path><path d="M97.432 20.541C95.764 11.247 88.7 4.188 79.437 2.557c-19.5-3.429-39.563-3.39-58.888.003-9.257 1.663-16.316 8.722-17.981 17.994A171.192 171.192 0 0 0 0 50.077c0 9.779.864 19.66 2.568 29.358 1.63 9.264 8.688 16.328 17.998 18.002A171.463 171.463 0 0 0 50.083 100c9.772 0 19.647-.861 29.354-2.563 9.442-1.663 16.338-8.56 18-18.002A170.58 170.58 0 0 0 100 50.077c0-9.881-.861-19.812-2.568-29.536zM79.854 40.407c-1.771.59-3.678-.439-4.23-2.224-3.987-12.831-11.436-18.065-25.704-18.065-17.323 0-25.392 10.02-25.392 31.53 0 18.16 8.911 27.922 25.771 28.226 7.15.249 13.57-2.043 17.633-6.02 2.773-2.713 4.241-6.045 4.241-9.626 0-3.776-1.284-6.815-3.819-9.036a12.92 12.92 0 0 0-1.609-1.198c-1.771 9.443-7.692 15.186-15.877 15.186-10.75 0-13.905-5.385-14.658-9.898-.572-3.424.16-6.631 2.107-9.27 2.134-2.893 5.536-4.789 9.583-5.33 4.382-.586 8.477-.575 12.155-.038-.606-2.612-1.814-4.746-3.51-6.017-3.797-2.792-10.698-2.527-14.485 2.354a3.372 3.372 0 0 1-4.743.602 3.381 3.381 0 0 1-.603-4.743c6.256-8.073 17.377-8.4 23.861-3.644 3.825 2.872 6.154 7.699 6.598 13.414 2.129.91 4.02 2.075 5.64 3.494 4.002 3.511 6.12 8.392 6.12 14.124 0 5.363-2.226 10.5-6.272 14.46-5.19 5.076-13.045 7.958-21.658 7.958-.281 0-.557-.006-.834-.011-20.587-.368-32.401-13.121-32.401-34.987 0-25.408 10.817-38.29 32.152-38.29 17.334 0 27.253 7.037 32.16 22.82a3.38 3.38 0 0 1-2.226 4.229z" fill="#f9feff" class="fill-444b54"></path></svg>