<svg width="56" height="56" viewBox="0 0 56 56" fill="none" xmlns="http://www.w3.org/2000/svg">
    <rect x="5" y="10" width="46" height="8" fill="#77ACF1" />
    <path d="M5 21H51V51C51 52.1046 50.1046 53 49 53H7C5.89543 53 5 52.1046 5 51V21Z" fill="white" />
    <path d="M18 33H24.5V26.5H31.5V33H38V41H31.5V47.5H28H24.5V41H18V33Z" fill="#04009A" />
    <path
        d="M49 7H47.25V5.25C47.25 3.85761 46.6969 2.52226 45.7123 1.53769C44.7277 0.553123 43.3924 0 42 0C40.6076 0 39.2723 0.553123 38.2877 1.53769C37.3031 2.52226 36.75 3.85761 36.75 5.25V7H33.25V5.25C33.25 3.85761 32.6969 2.52226 31.7123 1.53769C30.7277 0.553123 29.3924 0 28 0C26.6076 0 25.2723 0.553123 24.2877 1.53769C23.3031 2.52226 22.75 3.85761 22.75 5.25V7H19.25V5.25C19.25 3.85761 18.6969 2.52226 17.7123 1.53769C16.7277 0.553123 15.3924 0 14 0C12.6076 0 11.2723 0.553123 10.2877 1.53769C9.30312 2.52226 8.75 3.85761 8.75 5.25V7H7C5.60761 7 4.27226 7.55312 3.28769 8.53769C2.30312 9.52226 1.75 10.8576 1.75 12.25V50.75C1.75 52.1424 2.30312 53.4777 3.28769 54.4623C4.27226 55.4469 5.60761 56 7 56H49C50.3924 56 51.7277 55.4469 52.7123 54.4623C53.6969 53.4777 54.25 52.1424 54.25 50.75V12.25C54.25 10.8576 53.6969 9.52226 52.7123 8.53769C51.7277 7.55312 50.3924 7 49 7ZM40.25 5.25C40.25 4.78587 40.4344 4.34075 40.7626 4.01256C41.0908 3.68437 41.5359 3.5 42 3.5C42.4641 3.5 42.9092 3.68437 43.2374 4.01256C43.5656 4.34075 43.75 4.78587 43.75 5.25V7H40.25V5.25ZM26.25 5.25C26.25 4.78587 26.4344 4.34075 26.7626 4.01256C27.0908 3.68437 27.5359 3.5 28 3.5C28.4641 3.5 28.9093 3.68437 29.2374 4.01256C29.5656 4.34075 29.75 4.78587 29.75 5.25V7H26.25V5.25ZM12.25 5.25C12.25 4.78587 12.4344 4.34075 12.7626 4.01256C13.0908 3.68437 13.5359 3.5 14 3.5C14.4641 3.5 14.9092 3.68437 15.2374 4.01256C15.5656 4.34075 15.75 4.78587 15.75 5.25V7H12.25V5.25ZM5.25 12.25C5.25 11.7859 5.43437 11.3408 5.76256 11.0126C6.09075 10.6844 6.53587 10.5 7 10.5H8.75V12.25C8.75 12.7141 8.93437 13.1592 9.26256 13.4874C9.59075 13.8156 10.0359 14 10.5 14C10.9641 14 11.4092 13.8156 11.7374 13.4874C12.0656 13.1592 12.25 12.7141 12.25 12.25V10.5H22.75V12.25C22.75 12.7141 22.9344 13.1592 23.2626 13.4874C23.5908 13.8156 24.0359 14 24.5 14C24.9641 14 25.4092 13.8156 25.7374 13.4874C26.0656 13.1592 26.25 12.7141 26.25 12.25V10.5H36.75V12.25C36.75 12.7141 36.9344 13.1592 37.2626 13.4874C37.5908 13.8156 38.0359 14 38.5 14C38.9641 14 39.4092 13.8156 39.7374 13.4874C40.0656 13.1592 40.25 12.7141 40.25 12.25V10.5H49C49.4641 10.5 49.9092 10.6844 50.2374 11.0126C50.5656 11.3408 50.75 11.7859 50.75 12.25V17.5H5.25V12.25ZM50.75 50.75C50.75 51.2141 50.5656 51.6592 50.2374 51.9874C49.9092 52.3156 49.4641 52.5 49 52.5H7C6.53587 52.5 6.09075 52.3156 5.76256 51.9874C5.43437 51.6592 5.25 51.2141 5.25 50.75V21H50.75V50.75Z"
        fill="#04009A" />
    <path
        d="M31.5 49H24.5C24.0359 49 23.5908 48.8156 23.2626 48.4874C22.9344 48.1593 22.75 47.7141 22.75 47.25V42H17.5C17.0359 42 16.5908 41.8156 16.2626 41.4874C15.9344 41.1593 15.75 40.7141 15.75 40.25V33.25C15.75 32.7859 15.9344 32.3408 16.2626 32.0126C16.5908 31.6844 17.0359 31.5 17.5 31.5H22.75V26.25C22.75 25.7859 22.9344 25.3408 23.2626 25.0126C23.5908 24.6844 24.0359 24.5 24.5 24.5H31.5C31.9641 24.5 32.4093 24.6844 32.7374 25.0126C33.0656 25.3408 33.25 25.7859 33.25 26.25V31.5H38.5C38.9641 31.5 39.4093 31.6844 39.7374 32.0126C40.0656 32.3408 40.25 32.7859 40.25 33.25V40.25C40.25 40.7141 40.0656 41.1593 39.7374 41.4874C39.4093 41.8156 38.9641 42 38.5 42H33.25V47.25C33.25 47.7141 33.0656 48.1593 32.7374 48.4874C32.4093 48.8156 31.9641 49 31.5 49ZM26.25 45.5H29.75V40.25C29.75 39.7859 29.9344 39.3408 30.2626 39.0126C30.5908 38.6844 31.0359 38.5 31.5 38.5H36.75V35H31.5C31.0359 35 30.5908 34.8156 30.2626 34.4874C29.9344 34.1592 29.75 33.7141 29.75 33.25V28H26.25V33.25C26.25 33.7141 26.0656 34.1592 25.7374 34.4874C25.4092 34.8156 24.9641 35 24.5 35H19.25V38.5H24.5C24.9641 38.5 25.4092 38.6844 25.7374 39.0126C26.0656 39.3408 26.25 39.7859 26.25 40.25V45.5Z"
        fill="#77ACF1" />
</svg>
    